<svg width="438" height="438" viewBox="0 0 438 438" fill="none" xmlns="http://www.w3.org/2000/svg">
<rect width="438" height="438" rx="63" fill="white"/>
<ellipse cx="129.18" cy="268.92" rx="12.5" ry="15" fill="black"/>
<path d="M126.477 134.319C155.899 134.319 178.018 142.249 192.833 158.107C207.649 173.966 215.056 197.128 215.056 227.593C215.056 257.433 207.649 280.177 192.833 295.827C178.018 311.477 155.899 319.302 126.477 319.302C97.2641 319.302 75.1454 311.477 60.1214 295.827C45.3061 280.177 37.8984 257.433 37.8984 227.593C37.8984 197.128 45.3061 173.966 60.1214 158.107C75.1454 142.249 97.2641 134.319 126.477 134.319ZM126.477 255.45C128.147 255.45 129.503 255.137 130.546 254.511C131.798 253.677 132.737 252.216 133.363 250.129C133.989 247.834 134.407 244.808 134.615 241.052C135.033 237.296 135.241 232.497 135.241 226.654C135.241 220.812 135.033 216.012 134.615 212.256C134.407 208.5 133.989 205.579 133.363 203.492C132.737 201.406 131.798 200.049 130.546 199.423C129.503 198.589 128.147 198.171 126.477 198.171C124.808 198.171 123.452 198.589 122.408 199.423C121.365 200.049 120.53 201.406 119.904 203.492C119.278 205.579 118.757 208.5 118.339 212.256C118.131 216.012 118.026 220.812 118.026 226.654C118.026 232.497 118.131 237.296 118.339 241.052C118.757 244.808 119.278 247.834 119.904 250.129C120.53 252.216 121.365 253.677 122.408 254.511C123.452 255.137 124.808 255.45 126.477 255.45Z" fill="black"/>
<path d="M313.238 134.319C342.66 134.319 364.779 142.249 379.594 158.107C394.41 173.966 401.817 197.128 401.817 227.593C401.817 257.433 394.41 280.177 379.594 295.827C364.779 311.477 342.66 319.302 313.238 319.302C284.025 319.302 261.906 311.477 246.882 295.827C232.067 280.177 224.659 257.433 224.659 227.593C224.659 197.128 232.067 173.966 246.882 158.107C261.906 142.249 284.025 134.319 313.238 134.319ZM313.238 255.45C314.907 255.45 316.264 255.137 317.307 254.511C318.559 253.677 319.498 252.216 320.124 250.129C320.75 247.834 321.167 244.808 321.376 241.052C321.793 237.296 322.002 232.497 322.002 226.654C322.002 220.812 321.793 216.012 321.376 212.256C321.167 208.5 320.75 205.579 320.124 203.492C319.498 201.406 318.559 200.049 317.307 199.423C316.264 198.589 314.907 198.171 313.238 198.171C311.569 198.171 310.213 198.589 309.169 199.423C308.126 200.049 307.291 201.406 306.665 203.492C306.039 205.579 305.517 208.5 305.1 212.256C304.891 216.012 304.787 220.812 304.787 226.654C304.787 232.497 304.891 237.296 305.1 241.052C305.517 244.808 306.039 247.834 306.665 250.129C307.291 252.216 308.126 253.677 309.169 254.511C310.213 255.137 311.569 255.45 313.238 255.45Z" fill="black"/>
<ellipse cx="129.18" cy="234.92" rx="30.5" ry="45" fill="white"/>
<ellipse cx="319.18" cy="234.92" rx="30.5" ry="45" fill="white"/>
<ellipse cx="319" cy="267" rx="27" ry="32" fill="black"/>
<ellipse cx="130.5" cy="273" rx="31.5" ry="38" fill="black"/>
<path d="M53 122.423C59.8359 108.752 116.801 81.4073 171.488 103.054" stroke="black" stroke-width="20.5076" stroke-linecap="round"/>
<path d="M371.577 110.874C362.155 98.8382 300.885 83.3864 251.605 115.491" stroke="black" stroke-width="20.5076" stroke-linecap="round"/>
</svg>
